Simulation
nRows=31
nColumns=15
endheader
time  TH_x TH_y TH_z SC_y  SC_z  SC_x  AC_y  AC_z  AC_x  GH_y  GH_z  GH_yy  EL_x  PS_y
0.0  0.000000  0.000000  0.000000  -24.662690114837805  4.737653453349056  -3.807253379624391  50.52452829848843  7.37800066929669  1.2771229663020283  155.29615030968787  8.507711718243945  -108.7108671254592  20.771369035928146  120.000000
0.04016479400749064  0.000000  0.000000  0.000000  -24.66821261817988  4.756917670722993  -3.679700625208185  51.025867512667844  7.183212782901644  1.5840195774641932  152.626487964657  6.833831081036321  -106.95991003828787  20.33123597200154  120.000000
0.08032958801498127  0.000000  0.000000  0.000000  -24.75660242867874  4.7452241569401155  -3.5117461140136297  51.52462068289511  7.015171046570182  1.8362327841764035  147.45921799308766  5.155225900777064  -102.77882803886463  19.857580668831933  120.000000
0.12049438202247191  0.000000  0.000000  0.000000  -24.945754502474415  4.715319433630256  -3.3374622319497593  51.9888505032818  6.869495628214944  2.029543535222744  136.904515310387  3.5117015271550143  -93.32924768269955  19.358082028316296  120.000000
0.16065917602996255  0.000000  0.000000  0.000000  -25.23797847266508  4.65604388372079  -3.186167944330284  52.40342324043182  6.755678153601522  2.1655978722206837  110.15423415736994  2.1066188808415274  -67.86537167955065  18.823173978966963  120.000000
0.20082397003745317  0.000000  0.000000  0.000000  -25.61002885604068  4.570295687292771  -3.072677679076547  52.76916961951975  6.687574539519956  2.2586620440664134  51.70761960186408  1.877500682649276  -10.92007798926633  18.25378299339674  120.000000
0.24098876404494382  0.000000  0.000000  0.000000  -26.04197182910635  4.4729226727588  -2.997043070827887  53.08727130539434  6.672920363223521  2.3291549831924314  15.648353060288496  3.2188587706999163  23.39885163364129  17.65675011896812  120.000000
0.28115355805243447  0.000000  0.000000  0.000000  -26.51987599218267  4.379713962652692  -2.952726001082001  53.36178658725399  6.72427401541481  2.3914314129706304  1.8486647116733388  5.089135220419965  35.2142167850451  17.03837655251931  120.000000
0.3213183520599251  0.000000  0.000000  0.000000  -27.029518455265595  4.309378252839403  -2.931043528975909  53.59154297361061  6.858675420827908  2.460304616358247  -5.016572042259754  7.159178445770452  39.865742507033595  16.406337088083074  120.000000
0.3614831460674157  0.000000  0.000000  0.000000  -27.558878489122915  4.282644868183256  -2.9262828650065544  53.77156835859715  7.095657103233237  2.548792973546255  -9.130674098101348  9.359228610315977  41.5668904768042  15.769099847477175  120.000000
0.40164794007490634  0.000000  0.000000  0.000000  -28.096924213220078  4.32189531400862  -2.9323888827671567  53.89265023576858  7.447609760454619  2.668321492605376  -11.903150331070613  11.661577717020474  41.77090169186267  15.13732789871601  120.000000
0.441812734082397  0.000000  0.000000  0.000000  -28.63695767867792  4.444611816925917  -2.936288096222135  53.945603912455155  7.917218419928744  2.823855639636103  -13.97414367300371  14.043374673757757  41.16835444827774  14.520161780799743  120.000000
0.48197752808988764  0.000000  0.000000  0.000000  -29.177160223934678  4.657300879442201  -2.913031589280208  53.92615671693316  8.49609355231623  3.0117315152343584  -15.691589787148038  16.483036457596626  40.16243221206618  13.925154301428789  120.000000
0.5221423220973783  0.000000  0.000000  0.000000  -29.71428973835181  4.960411081231178  -2.8283204053530144  53.83943364921131  9.162190939386994  3.225712319022297  -17.247510938261545  18.95742370370783  39.00144247257157  13.357256451897857  120.000000
0.5623071161048689  0.000000  0.000000  0.000000  -30.243900713729566  5.350469228026083  -2.648704232352369  53.69984218687194  9.888446937573661  3.465396051945099  -18.734937436251275  21.439219585831122  37.834901512043295  12.82003970417001  120.000000
0.6024719101123596  0.000000  0.000000  0.000000  -30.760157606081233  5.817937652035465  -2.348200992150729  53.526904658585664  10.648150080057098  3.732733612759492  -20.186669685733722  23.9005474447382  36.7471361725196  12.318441695001043  120.000000
0.6426367041198502  0.000000  0.000000  0.000000  -31.257615826372657  6.348467620230025  -1.9052773972670072  53.341049732014824  11.413505704864912  4.028028484138882  -21.603333732675893  26.31689585477851  35.78384612720666  11.856588642800386  120.000000
0.6828014981273408  0.000000  0.000000  0.000000  -31.73341115880117  6.92479881701572  -1.3036975774010846  53.16204499909366  12.156477179389737  4.348126780758962  -22.96594141456905  28.6701975081501  34.958967462014954  11.435542939329482  120.000000
0.7229662921348314  0.000000  0.000000  0.000000  -32.18666083157388  7.527792091412908  -0.534707861883429  53.00587525986884  12.852816886491057  4.687029913974802  -24.244847351636224  30.95030660803225  34.26203518123382  11.051896122524193  120.000000
0.7631310861423221  0.000000  0.000000  0.000000  -32.61811781868517  8.138119049252467  0.401874102519631  52.88502600753627  13.484215367960125  5.037635351903401  -25.40952069759968  33.154713249250975  33.665985902480166  10.696878906008887  120.000000
0.8032958801498127  0.000000  0.000000  0.000000  -33.03064666371305  8.737418902324334  1.4995181145581158  52.80928368278582  14.039063276307333  5.393855644876856  -26.432135056549228  35.286681288926914  33.13366192473254  10.357073846859272  120.000000
0.8434606741573034  0.000000  0.000000  0.000000  -33.42758277424159  9.309453001931047  2.743158927790323  52.784843294774674  14.514365753268287  5.75349027056762  -27.291476450786025  37.352036924643215  32.62558172380702  10.017029803121586  120.000000
0.883625468164794  0.000000  0.000000  0.000000  -33.811306746880625  9.841304540819209  4.108496170362575  52.81286814815127  14.915468999091233  6.119479284460412  -27.973987488808334  39.357096290576614  32.107074972216985  9.662938381768667  120.000000
0.9237902621722847  0.000000  0.000000  0.000000  -34.183688740906575  10.32436880035819  5.567980832107717  52.88887972603957  15.250686862938766  6.496539429113874  -28.47624260628979  41.30624072077201  31.555979982484175  9.287035767840619  120.000000
0.9639550561797753  0.000000  0.000000  0.000000  -34.54678087415073  10.754540293904409  7.093084938734706  53.002666068006114  15.528222269183951  6.888833154007785  -28.804590023203716  43.201016491439944  30.966224487561853  8.89065658031344  120.000000
1.004119850187266  0.000000  0.000000  0.000000  -34.904015465618976  11.13239476699197  8.653656505970279  53.13939312904043  15.755428356681083  7.300473292495665  -28.976399957558666  45.03907076367758  30.349797511983496  8.484298587694097  120.000000
1.0442846441947566  0.000000  0.000000  0.000000  -35.26100526455343  11.46176818261305  10.218651746644298  53.283331438792274  15.938803960264577  7.733736672854327  -29.017143415254385  46.81303724873505  29.73197708338004  8.08452394806669  120.000000
1.0844494382022472  0.000000  0.000000  0.000000  -35.62502596956773  11.747244238465838  11.757422562289975  53.42166923787622  16.084465365071623  8.188613778565664  -28.958307437280077  48.51128396704803  29.146163694257474  7.709800321624901  120.000000
1.1246142322097379  0.000000  0.000000  0.000000  -36.00279710242903  11.993699345324607  13.240517026591736  53.547787144292506  16.197993536060295  8.662187006774213  -28.834863560006102  50.11841881565246  28.627129862753378  7.377036888119374  120.000000
1.1647790262172284  0.000000  0.000000  0.000000  -36.39885493918277  12.20545166963715  14.640699190963112  53.66261738640728  16.284473819500942  9.149538869168087  -28.684074933305062  51.617224293472425  28.207661954561647  7.099427391859534  120.000000
1.2049438202247191  0.000000  0.000000  0.000000  -36.81417530440621  12.386119481739268  15.933238388978516  53.774363820217076  16.34922317914209  9.643383273615123  -28.542108100542155  52.989872569465305  27.91369385889163  6.885425462184601  120.000000
